<?xml version="1.0" encoding="utf-8"?>
<svg width="1280" height="1280" style="shape-rendering:geometricPrecision" viewBox="0 0 284 284" xmlns="http://www.w3.org/2000/svg">
  <path d="M178 28l55 0c12,0 22,10 22,23l0 54c0,13 -10,23 -22,23l-77 0 0 -77c0,-13 10,-23 22,-23z" style="fill: rgb(248, 120, 91);"/>
  <path d="M51 28l54 0c13,0 23,10 23,23l0 77 -77 0c-13,0 -23,-10 -23,-23l0 -54c0,-13 10,-23 23,-23z" style="fill: rgb(248, 120, 91);"/>
  <path d="M51 156l77 0 0 77c0,12 -10,22 -23,22l-54 0c-13,0 -23,-10 -23,-22l0 -55c0,-12 10,-22 23,-22z" style="fill: rgb(248, 120, 91);"/>
  <path d="M156 156l77 0c12,0 22,10 22,22l0 55c0,12 -10,22 -22,22l-55 0c-12,0 -22,-10 -22,-22l0 -77z" style="fill: rgb(248, 120, 91);"/>
</svg>